HIERARCHY
ROOT hip
{
  OFFSET 0 0 0
  CHANNELS 6 Xposition Yposition Zposition Zrotation Yrotation Xrotation
  JOINT abdomen
  {
    OFFSET 0 20.6881 -0.73152
    CHANNELS 3 Zrotation Xrotation Yrotation
    JOINT chest
    {
      OFFSET 0 11.7043 -0.48768
      CHANNELS 3 Zrotation Xrotation Yrotation
      JOINT neck
      {
        OFFSET 0 22.1894 -2.19456
        CHANNELS 3 Zrotation Xrotation Yrotation
        JOINT head
        {
          OFFSET -0.24384 7.07133 1.2192
          CHANNELS 3 Zrotation Xrotation Yrotation
          JOINT leftEye
          {
            OFFSET 4.14528 8.04674 8.04672
            CHANNELS 3 Zrotation Xrotation Yrotation
            End Site
            {
              OFFSET 1 0 0
            }
          }
          JOINT rightEye
          {
            OFFSET -3.6576 8.04674 8.04672
            CHANNELS 3 Zrotation Xrotation Yrotation
            End Site
            {
              OFFSET 1 0 0
            }
          }
        }
      }
      JOINT rCollar
      {
        OFFSET -2.68224 19.2634 -4.8768
        CHANNELS 3 Zrotation Xrotation Yrotation
        JOINT rShldr
        {
          OFFSET -8.77824 -1.95073 1.46304
          CHANNELS 3 Zrotation Xrotation Yrotation
          JOINT rForeArm
          {
            OFFSET -28.1742 -1.7115 0.48768
            CHANNELS 3 Zrotation Xrotation Yrotation
            JOINT rHand
            {
              OFFSET -22.5879 0.773209 7.07136
              CHANNELS 3 Zrotation Xrotation Yrotation
              JOINT rThumb1
              {
                OFFSET -1.2192 -0.487915 3.41376
                CHANNELS 3 Zrotation Xrotation Yrotation
                JOINT rThumb2
                {
                  OFFSET -3.37035 -0.52449 3.41376
                  CHANNELS 3 Zrotation Xrotation Yrotation
                  End Site
                  {
                    OFFSET -1.78271 -1.18214 1.43049
                  }
                }
              }
              JOINT rIndex1
              {
                OFFSET -7.75947 0.938293 5.60832
                CHANNELS 3 Zrotation Xrotation Yrotation
                JOINT rIndex2
                {
                  OFFSET -2.54057 -0.884171 1.56538
                  CHANNELS 3 Zrotation Xrotation Yrotation
                  End Site
                  {
                    OFFSET -1.62519 -0.234802 1.16502
                  }
                }
              }
              JOINT rMid1
              {
                OFFSET -8.24714 1.18213 3.41376
                CHANNELS 3 Zrotation Xrotation Yrotation
                JOINT rMid2
                {
                  OFFSET -3.10165 -0.590103 1.0647
                  CHANNELS 3 Zrotation Xrotation Yrotation
                  End Site
                  {
                    OFFSET -2.48547 -0.328903 0.83742
                  }
                }
              }
              JOINT rRing1
              {
                OFFSET -8.82822 0.546677 1.51678
                CHANNELS 3 Zrotation Xrotation Yrotation
                JOINT rRing2
                {
                  OFFSET -2.60934 -0.819778 -0.0198488
                  CHANNELS 3 Zrotation Xrotation Yrotation
                  End Site
                  {
                    OFFSET -2.33842 -0.294052 0.168128
                  }
                }
              }
              JOINT rPinky1
              {
                OFFSET -8.27202 -0.0477905 -0.4584
                CHANNELS 3 Zrotation Xrotation Yrotation
                JOINT rPinky2
                {
                  OFFSET -1.82734 -0.647385 -0.700984
                  CHANNELS 3 Zrotation Xrotation Yrotation
                  End Site
                  {
                    OFFSET -1.69225 -0.51767 -0.607171
                  }
                }
              }
            }
          }
        }
      }
      JOINT lCollar
      {
        OFFSET 2.68224 19.2634 -4.8768
        CHANNELS 3 Zrotation Xrotation Yrotation
        JOINT lShldr
        {
          OFFSET 8.77824 -1.95073 1.46304
          CHANNELS 3 Zrotation Xrotation Yrotation
          JOINT lForeArm
          {
            OFFSET 28.1742 -1.7115 0.48768
            CHANNELS 3 Zrotation Xrotation Yrotation
            JOINT lHand
            {
              OFFSET 22.5879 0.773209 7.07136
              CHANNELS 3 Zrotation Xrotation Yrotation
              JOINT lThumb1
              {
                OFFSET 1.2192 -0.487915 3.41376
                CHANNELS 3 Zrotation Xrotation Yrotation
                JOINT lThumb2
                {
                  OFFSET 3.37035 -0.52449 3.41376
                  CHANNELS 3 Zrotation Xrotation Yrotation
                  End Site
                  {
                    OFFSET 1.78271 -1.18214 1.43049
                  }
                }
              }
              JOINT lIndex1
              {
                OFFSET 7.75947 0.938293 5.60832
                CHANNELS 3 Zrotation Xrotation Yrotation
                JOINT lIndex2
                {
                  OFFSET 2.54057 -0.884171 1.56538
                  CHANNELS 3 Zrotation Xrotation Yrotation
                  End Site
                  {
                    OFFSET 1.62519 -0.234802 1.16502
                  }
                }
              }
              JOINT lMid1
              {
                OFFSET 8.24714 1.18213 3.41376
                CHANNELS 3 Zrotation Xrotation Yrotation
                JOINT lMid2
                {
                  OFFSET 3.10165 -0.590103 1.0647
                  CHANNELS 3 Zrotation Xrotation Yrotation
                  End Site
                  {
                    OFFSET 2.48547 -0.328903 0.83742
                  }
                }
              }
              JOINT lRing1
              {
                OFFSET 8.82822 0.546677 1.51678
                CHANNELS 3 Zrotation Xrotation Yrotation
                JOINT lRing2
                {
                  OFFSET 2.60934 -0.819778 -0.0198488
                  CHANNELS 3 Zrotation Xrotation Yrotation
                  End Site
                  {
                    OFFSET 2.33842 -0.294052 0.168128
                  }
                }
              }
              JOINT lPinky1
              {
                OFFSET 8.27202 -0.0477905 -0.4584
                CHANNELS 3 Zrotation Xrotation Yrotation
                JOINT lPinky2
                {
                  OFFSET 1.82734 -0.647385 -0.700984
                  CHANNELS 3 Zrotation Xrotation Yrotation
                  End Site
                  {
                    OFFSET 1.69225 -0.51767 -0.607171
                  }
                }
              }
            }
          }
        }
      }
    }
  }
  JOINT rButtock
  {
    OFFSET -8.77824 4.35084 1.2192
    CHANNELS 3 Zrotation Xrotation Yrotation
    JOINT rThigh
    {
      OFFSET 0 -1.70687 -2.19456
      CHANNELS 3 Zrotation Xrotation Yrotation
      JOINT rShin
      {
        OFFSET 0 -36.8199 0.73152
        CHANNELS 3 Zrotation Xrotation Yrotation
        JOINT rFoot
        {
          OFFSET 0.73152 -45.1104 -5.12064
          CHANNELS 3 Zrotation Xrotation Yrotation
          End Site
          {
            OFFSET -1.1221 -3.69964 12.103
          }
        }
      }
    }
  }
  JOINT lButtock
  {
    OFFSET 8.77824 4.35084 1.2192
    CHANNELS 3 Zrotation Xrotation Yrotation
    JOINT lThigh
    {
      OFFSET 0 -1.70687 -2.19456
      CHANNELS 3 Zrotation Xrotation Yrotation
      JOINT lShin
      {
        OFFSET 0 -36.8199 0.73152
        CHANNELS 3 Zrotation Xrotation Yrotation
        JOINT lFoot
        {
          OFFSET -0.73152 -45.1104 -5.12064
          CHANNELS 3 Zrotation Xrotation Yrotation
          End Site
          {
            OFFSET 1.1221 -3.69964 12.103
          }
        }
      }
    }
  }
}
MOTION
Frames:	5
Frame Time:	0.03333333333333333
-55.837418 82.13262 5.165837 205.84515 -70.06842 -197.65216 9.599138 -5.495085 -1.3959119 1.0870451 -8.334043 0.19396247 -9.106765 2.1724021 6.698472 18.436384 -3.2863646 13.729272 -0.04488448 -0.045799308 0.053246725 0.0047876956 0.10632991 -0.024668427 0.007046247 0.010523266 -0.08034975 81.646965 51.352135 13.97918 -21.766523 -14.84966 41.220703 -0.8508492 19.10627 3.15458 0.0601932 -0.17229803 -0.105016336 -0.07959246 0.04695939 -0.12984525 -0.16455856 -0.031767476 -0.017382137 7.9385114 5.7923822 0.38913107 -0.064329125 -0.01458416 0.15195292 3.15562 1.0608244 0.19024514 0.04737558 -0.047362376 0.097410046 10.493464 0.8254379 -0.09263001 0.030766852 0.039692815 0.09608048 2.4023378 -0.8308935 -0.38012657 -0.016186293 0.11277085 -0.019933293 -48.02407 -20.753334 -1.2954249 26.845356 -46.79036 -95.73716 50.9124 -81.38915 58.080482 -0.12643237 -0.04666198 0.032219388 -0.037317485 0.14326128 -0.019395389 0.10227968 0.042538323 0.04492135 -8.020788 5.639606 -0.32576674 0.013810855 0.09321884 0.08376811 -3.0917122 1.0376197 -0.067969024 -0.002296651 -0.018889794 0.012674696 -10.586717 0.858362 -0.07324401 0.11129759 -0.026609909 0.03476966 -2.348843 -0.7655309 0.2926719 -0.055045664 -0.10552778 0.068527736 20.570105 -36.042458 3.4105515 0.15034065 32.674507 -1.0174944 -2.217444 -22.07111 3.3622153 0.021265605 0.023937037 0.068811804 22.592594 -43.09051 25.269144 136.20998 80.006096 -137.14217 0.45815155 23.521055 -5.243328
-58.25954 82.79616 4.1774874 208.35945 -67.84251 -202.91626 11.967914 -4.325892 1.057109 1.9799347 -10.3453245 0.089923754 -8.085181 3.1650796 7.8360972 17.643167 -4.555073 15.218115 -0.0150057115 -0.11873235 0.14604704 0.04938947 0.10689028 0.031124663 -0.0472696 0.026261369 -0.10770082 83.20558 50.83284 13.744629 -21.168518 -14.192625 39.75942 -1.9159318 21.534138 4.244757 0.12378362 -0.2238921 -0.15202793 -0.04098844 0.02109952 -0.18718089 -0.15912856 0.07680051 -0.036368195 7.833826 5.720871 0.38881004 -0.08834771 -0.029743765 0.26460055 3.1424735 1.0571333 0.22970875 0.12340337 -0.051781442 -0.0099356305 10.399678 0.836706 -0.08220906 0.08149226 0.07753324 0.0644503 2.3703833 -0.82844704 -0.44645086 0.027046187 0.10336557 -0.028260946 -47.17914 -23.55197 4.414151 26.164667 -47.700203 -97.58829 64.14368 -81.65769 72.09321 -0.17382507 -0.042229563 0.07435456 -0.071347244 0.13868698 -0.00032149913 0.029086253 0.09079577 0.09813188 -7.981183 5.5810213 -0.3565343 0.019153237 0.016492078 0.058658674 -3.091174 1.1110605 -0.14939581 0.01594737 -0.007929582 -0.050147355 -10.493943 0.8904897 -0.1049061 0.17347875 0.02811279 0.0806164 -2.3900175 -0.82992995 0.34127071 -0.10878517 -0.1047323 0.091400735 22.299765 -32.878956 0.8887097 0.121012695 30.094576 -0.929344 0.4006386 -20.992064 6.064488 0.031578656 0.097018406 0.08254219 37.98193 -44.93106 40.83497 175.05817 68.52167 -176.3299 3.052951 45.391827 -7.833763
-61.431503 82.451546 3.586824 214.86685 -67.21715 -206.12936 12.757809 -3.7896981 3.6199334 3.2572632 -10.085552 0.5858029 -7.9511046 2.977537 7.674878 15.747972 -5.346149 16.557674 0.052515935 -0.15896776 0.19540663 0.07270357 0.13612732 0.06666435 -0.11272317 0.038246855 -0.14494126 84.3558 50.597954 14.239947 -20.622032 -12.688753 37.60788 -2.131315 22.545448 4.4955506 0.1571983 -0.2552661 -0.22013019 0.0008664201 -0.022800317 -0.23480706 -0.14430876 0.16372043 -0.0851319 7.6960926 5.6353507 0.37239674 -0.114704564 -0.041562233 0.33717775 3.1048028 1.0250987 0.2615392 0.16467533 -0.061726663 -0.07183203 10.293187 0.79720974 -0.077679574 0.10728049 0.09566018 0.04547636 2.2887065 -0.78214526 -0.46649197 0.050362717 0.11819295 -0.036039785 -43.39962 -28.638628 8.38417 24.692862 -47.881027 -99.08794 77.140274 -82.92186 85.21341 -0.18396956 -0.023421038 0.10388493 -0.085556865 0.14263073 0.0023638858 -0.033066332 0.08057929 0.12358944 -7.9001 5.490693 -0.3668483 0.024165794 -0.050174754 0.022254942 -3.026775 1.1424996 -0.21346895 0.021726618 -0.0039273584 -0.10549952 -10.389015 0.88388884 -0.10001974 0.21573062 0.10560013 0.11790069 -2.3670912 -0.86645985 0.3532217 -0.15557873 -0.110210724 0.11423292 22.20976 -28.255491 0.33750653 -0.12163091 26.784534 -0.11917978 0.43910685 -20.123857 5.1191077 0.06316062 0.15939787 0.079236165 55.038532 -41.503796 54.477802 175.68742 53.943325 -176.94412 11.951339 61.49312 -15.642848
-64.9005 83.52854 3.286468 219.04068 -68.39077 -207.9758 13.239372 -3.6920645 5.0803313 3.8357346 -8.857688 1.2684098 -7.2854633 2.830832 7.348467 14.565958 -5.7671676 17.896915 0.13170375 -0.18352018 0.21937774 0.090507366 0.17674589 0.06984042 -0.19240077 0.0619147 -0.17294155 84.49177 51.92803 15.898664 -19.845781 -10.854425 35.709698 -1.3532579 23.481874 3.6606004 0.17920949 -0.27149045 -0.28709093 0.018569415 -0.061652992 -0.27452695 -0.12949932 0.19885524 -0.14500928 7.6233673 5.603555 0.34398127 -0.14523211 -0.05588151 0.38132137 3.0578904 0.9835717 0.2682104 0.17444958 -0.07084469 -0.0977435 10.298141 0.7200372 -0.07269242 0.13679832 0.108540796 0.040343363 2.2048132 -0.72567725 -0.45346788 0.07235507 0.13543214 -0.030475475 -40.867397 -32.45368 12.513415 24.188223 -48.5862 -101.51432 86.30039 -83.871315 94.29326 -0.19573008 -0.029460471 0.14328983 -0.071394205 0.13533059 0.0067656757 -0.08680338 0.06485103 0.11415578 -7.870037 5.4204254 -0.35356885 0.022563048 -0.110422246 -0.008097189 -2.9741552 1.1436332 -0.2573172 0.031030828 0.006982534 -0.15028033 -10.378597 0.86337024 -0.08646272 0.24971634 0.18342261 0.16123621 -2.3279917 -0.87787473 0.3639367 -0.20374018 -0.11851811 0.11999948 21.585585 -22.166634 1.1221852 0.07472475 24.163023 0.6971608 -0.11061192 -19.55929 2.567588 0.09907395 0.21642312 0.07312501 68.70819 -38.564648 63.76675 174.86217 43.874023 -175.82861 23.535357 71.13101 -25.54912
-68.34551 83.8274 3.3793595 219.40605 -68.211334 -207.31099 14.117431 -3.3179383 5.6813493 4.113187 -7.734441 1.9662852 -7.391523 2.6490366 7.1377854 14.051038 -5.430298 19.23475 0.17655057 -0.18546377 0.21631266 0.11841541 0.21114178 0.042038932 -0.26074958 0.08496611 -0.18541183 83.136795 52.70698 16.238089 -19.219685 -9.5238 33.988857 -0.79739314 23.854467 2.5992007 0.17523089 -0.26623067 -0.3267194 0.024285857 -0.097810775 -0.3111968 -0.107972585 0.21978368 -0.17952783 7.5330906 5.545619 0.32439774 -0.16225396 -0.05372509 0.41308206 2.997433 0.9366714 0.26172516 0.16289541 -0.06727952 -0.09861772 10.254777 0.6458378 -0.06658031 0.15307926 0.11309037 0.035646968 2.1333778 -0.6713633 -0.42654783 0.07879247 0.13967048 -0.035203885 -38.38626 -34.26218 16.917187 23.966602 -49.389095 -103.70699 93.46345 -83.474396 100.95553 -0.19557202 -0.034133974 0.17387296 -0.048308432 0.124729544 0.0048165102 -0.12768196 0.052151468 0.092357814 -7.787714 5.3311434 -0.33753648 0.013293949 -0.15327112 -0.03511368 -2.9106808 1.138016 -0.281779 0.03170296 0.024434466 -0.17568515 -10.316358 0.82433814 -0.0689395 0.25406164 0.23924638 0.19101925 -2.2780294 -0.8700844 0.3764346 -0.24571615 -0.11976947 0.114589386 20.643267 -17.751848 1.952733 0.7934197 23.022055 0.56693876 -0.45153224 -20.634918 1.0997806 0.12394941 0.2316561 0.06815098 76.01405 -37.382156 67.546646 173.8836 39.415703 -175.02762 27.744255 75.12056 -28.592663
